<mxfile host="app.diagrams.net" agent="Mozilla/5.0 (Windows NT 10.0; Win64; x64) AppleWebKit/537.36 (KHTML, like Gecko) Chrome/135.0.0.0 Safari/537.36" version="26.1.0">
  <diagram name="Page-1" id="007UeYPAoFnlW-ycTlNl">
    <mxGraphModel dx="3315" dy="2105" grid="1" gridSize="10" guides="1" tooltips="1" connect="1" arrows="1" fold="1" page="1" pageScale="1" pageWidth="850" pageHeight="1100" math="0" shadow="0">
      <root>
        <mxCell id="0" />
        <mxCell id="1" parent="0" />
        <mxCell id="MX4U36bBvxosSef0G0B_-11" style="edgeStyle=orthogonalEdgeStyle;rounded=0;orthogonalLoop=1;jettySize=auto;html=1;" edge="1" parent="1" source="MX4U36bBvxosSef0G0B_-3" target="MX4U36bBvxosSef0G0B_-9">
          <mxGeometry relative="1" as="geometry" />
        </mxCell>
        <mxCell id="MX4U36bBvxosSef0G0B_-3" value="" style="shape=actor;whiteSpace=wrap;html=1;" vertex="1" parent="1">
          <mxGeometry x="-1620" y="1568" width="40" height="60" as="geometry" />
        </mxCell>
        <mxCell id="MX4U36bBvxosSef0G0B_-7" value="Request" style="text;html=1;align=center;verticalAlign=middle;resizable=0;points=[];autosize=1;strokeColor=none;fillColor=none;" vertex="1" parent="1">
          <mxGeometry x="-1570" y="1568" width="70" height="30" as="geometry" />
        </mxCell>
        <mxCell id="MX4U36bBvxosSef0G0B_-37" style="edgeStyle=orthogonalEdgeStyle;rounded=0;orthogonalLoop=1;jettySize=auto;html=1;exitX=1;exitY=0.5;exitDx=0;exitDy=0;entryX=0;entryY=0.5;entryDx=0;entryDy=0;" edge="1" parent="1" source="MX4U36bBvxosSef0G0B_-9" target="MX4U36bBvxosSef0G0B_-28">
          <mxGeometry relative="1" as="geometry" />
        </mxCell>
        <mxCell id="MX4U36bBvxosSef0G0B_-9" value="API Gateway" style="ellipse;whiteSpace=wrap;html=1;" vertex="1" parent="1">
          <mxGeometry x="-1450" y="1558" width="120" height="80" as="geometry" />
        </mxCell>
        <mxCell id="MX4U36bBvxosSef0G0B_-55" style="edgeStyle=orthogonalEdgeStyle;rounded=0;orthogonalLoop=1;jettySize=auto;html=1;entryX=0.5;entryY=0;entryDx=0;entryDy=0;curved=1;exitX=0.5;exitY=1;exitDx=0;exitDy=0;" edge="1" parent="1" source="MX4U36bBvxosSef0G0B_-12" target="MX4U36bBvxosSef0G0B_-14">
          <mxGeometry relative="1" as="geometry">
            <Array as="points">
              <mxPoint x="-900" y="1200" />
              <mxPoint x="-900" y="1290" />
            </Array>
          </mxGeometry>
        </mxCell>
        <mxCell id="MX4U36bBvxosSef0G0B_-12" value="User Service" style="rounded=1;whiteSpace=wrap;html=1;" vertex="1" parent="1">
          <mxGeometry x="-1000" y="1160" width="280" height="40" as="geometry" />
        </mxCell>
        <mxCell id="MX4U36bBvxosSef0G0B_-66" style="edgeStyle=orthogonalEdgeStyle;rounded=0;orthogonalLoop=1;jettySize=auto;html=1;entryX=0.5;entryY=1;entryDx=0;entryDy=0;curved=1;exitX=0.5;exitY=0;exitDx=0;exitDy=0;" edge="1" parent="1" source="MX4U36bBvxosSef0G0B_-14" target="MX4U36bBvxosSef0G0B_-12">
          <mxGeometry relative="1" as="geometry">
            <Array as="points">
              <mxPoint x="-830" y="1290" />
              <mxPoint x="-830" y="1200" />
            </Array>
          </mxGeometry>
        </mxCell>
        <mxCell id="MX4U36bBvxosSef0G0B_-14" value="Auth Service" style="rounded=1;whiteSpace=wrap;html=1;" vertex="1" parent="1">
          <mxGeometry x="-1010" y="1290" width="280" height="40" as="geometry" />
        </mxCell>
        <mxCell id="MX4U36bBvxosSef0G0B_-15" value="Repaire Service" style="rounded=1;whiteSpace=wrap;html=1;" vertex="1" parent="1">
          <mxGeometry x="-1020" y="1450" width="280" height="40" as="geometry" />
        </mxCell>
        <mxCell id="MX4U36bBvxosSef0G0B_-16" value="Inventory Service" style="rounded=1;whiteSpace=wrap;html=1;" vertex="1" parent="1">
          <mxGeometry x="-920" y="1700" width="280" height="40" as="geometry" />
        </mxCell>
        <mxCell id="MX4U36bBvxosSef0G0B_-17" value="Invoice Service" style="rounded=1;whiteSpace=wrap;html=1;" vertex="1" parent="1">
          <mxGeometry x="-1060" y="1780" width="280" height="40" as="geometry" />
        </mxCell>
        <mxCell id="MX4U36bBvxosSef0G0B_-38" style="edgeStyle=orthogonalEdgeStyle;rounded=0;orthogonalLoop=1;jettySize=auto;html=1;exitX=1;exitY=0.5;exitDx=0;exitDy=0;entryX=0;entryY=0.5;entryDx=0;entryDy=0;dashed=1;curved=1;" edge="1" parent="1" source="MX4U36bBvxosSef0G0B_-28" target="MX4U36bBvxosSef0G0B_-12">
          <mxGeometry relative="1" as="geometry">
            <Array as="points">
              <mxPoint x="-1180" y="1210" />
              <mxPoint x="-1080" y="1210" />
              <mxPoint x="-1080" y="1180" />
            </Array>
          </mxGeometry>
        </mxCell>
        <mxCell id="MX4U36bBvxosSef0G0B_-39" style="edgeStyle=orthogonalEdgeStyle;rounded=0;orthogonalLoop=1;jettySize=auto;html=1;exitX=1;exitY=0.5;exitDx=0;exitDy=0;entryX=0;entryY=0.5;entryDx=0;entryDy=0;dashed=1;curved=1;" edge="1" parent="1" source="MX4U36bBvxosSef0G0B_-28" target="MX4U36bBvxosSef0G0B_-14">
          <mxGeometry relative="1" as="geometry">
            <mxPoint x="-1030" y="1540" as="targetPoint" />
            <Array as="points">
              <mxPoint x="-1110" y="1598" />
              <mxPoint x="-1110" y="1310" />
              <mxPoint x="-1010" y="1310" />
            </Array>
          </mxGeometry>
        </mxCell>
        <mxCell id="MX4U36bBvxosSef0G0B_-40" style="edgeStyle=orthogonalEdgeStyle;rounded=0;orthogonalLoop=1;jettySize=auto;html=1;exitX=1;exitY=0.5;exitDx=0;exitDy=0;entryX=0;entryY=0.5;entryDx=0;entryDy=0;dashed=1;curved=1;" edge="1" parent="1" source="MX4U36bBvxosSef0G0B_-28" target="MX4U36bBvxosSef0G0B_-15">
          <mxGeometry relative="1" as="geometry" />
        </mxCell>
        <mxCell id="MX4U36bBvxosSef0G0B_-41" style="edgeStyle=orthogonalEdgeStyle;rounded=0;orthogonalLoop=1;jettySize=auto;html=1;exitX=1;exitY=0.5;exitDx=0;exitDy=0;entryX=0;entryY=0.5;entryDx=0;entryDy=0;dashed=1;curved=1;" edge="1" parent="1" source="MX4U36bBvxosSef0G0B_-28" target="MX4U36bBvxosSef0G0B_-16">
          <mxGeometry relative="1" as="geometry">
            <Array as="points">
              <mxPoint x="-1130" y="1598" />
              <mxPoint x="-1130" y="1710" />
            </Array>
          </mxGeometry>
        </mxCell>
        <mxCell id="MX4U36bBvxosSef0G0B_-42" style="edgeStyle=orthogonalEdgeStyle;rounded=0;orthogonalLoop=1;jettySize=auto;html=1;exitX=1;exitY=0.5;exitDx=0;exitDy=0;entryX=0;entryY=0.5;entryDx=0;entryDy=0;dashed=1;curved=1;" edge="1" parent="1" source="MX4U36bBvxosSef0G0B_-28" target="MX4U36bBvxosSef0G0B_-17">
          <mxGeometry relative="1" as="geometry">
            <Array as="points">
              <mxPoint x="-1160" y="1598" />
              <mxPoint x="-1160" y="1800" />
            </Array>
          </mxGeometry>
        </mxCell>
        <mxCell id="MX4U36bBvxosSef0G0B_-28" value="Verify User" style="ellipse;whiteSpace=wrap;html=1;aspect=fixed;" vertex="1" parent="1">
          <mxGeometry x="-1260" y="1558" width="80" height="80" as="geometry" />
        </mxCell>
        <mxCell id="MX4U36bBvxosSef0G0B_-43" style="edgeStyle=orthogonalEdgeStyle;rounded=0;orthogonalLoop=1;jettySize=auto;html=1;entryX=0.81;entryY=0.138;entryDx=0;entryDy=0;entryPerimeter=0;curved=1;" edge="1" parent="1" source="MX4U36bBvxosSef0G0B_-28" target="MX4U36bBvxosSef0G0B_-3">
          <mxGeometry relative="1" as="geometry">
            <Array as="points">
              <mxPoint x="-1220" y="1480" />
              <mxPoint x="-1588" y="1480" />
            </Array>
          </mxGeometry>
        </mxCell>
        <mxCell id="MX4U36bBvxosSef0G0B_-44" value="Not Authurize" style="text;html=1;align=center;verticalAlign=middle;resizable=0;points=[];autosize=1;strokeColor=none;fillColor=none;" vertex="1" parent="1">
          <mxGeometry x="-1450" y="1450" width="100" height="30" as="geometry" />
        </mxCell>
        <mxCell id="MX4U36bBvxosSef0G0B_-45" value="middleware" style="text;html=1;align=center;verticalAlign=middle;resizable=0;points=[];autosize=1;strokeColor=none;fillColor=none;" vertex="1" parent="1">
          <mxGeometry x="-1260" y="1638" width="80" height="30" as="geometry" />
        </mxCell>
        <mxCell id="MX4U36bBvxosSef0G0B_-46" value="" style="shape=cylinder3;whiteSpace=wrap;html=1;boundedLbl=1;backgroundOutline=1;size=15;" vertex="1" parent="1">
          <mxGeometry x="-610" y="1200" width="60" height="80" as="geometry" />
        </mxCell>
        <mxCell id="MX4U36bBvxosSef0G0B_-49" value="Database" style="text;html=1;align=center;verticalAlign=middle;resizable=0;points=[];autosize=1;strokeColor=none;fillColor=none;" vertex="1" parent="1">
          <mxGeometry x="-615" y="1290" width="70" height="30" as="geometry" />
        </mxCell>
        <mxCell id="MX4U36bBvxosSef0G0B_-54" style="edgeStyle=orthogonalEdgeStyle;rounded=0;orthogonalLoop=1;jettySize=auto;html=1;entryX=0;entryY=0.5;entryDx=0;entryDy=0;entryPerimeter=0;curved=1;" edge="1" parent="1" source="MX4U36bBvxosSef0G0B_-12" target="MX4U36bBvxosSef0G0B_-46">
          <mxGeometry relative="1" as="geometry" />
        </mxCell>
        <mxCell id="MX4U36bBvxosSef0G0B_-57" value="" style="shape=cylinder3;whiteSpace=wrap;html=1;boundedLbl=1;backgroundOutline=1;size=15;" vertex="1" parent="1">
          <mxGeometry x="-590" y="1680" width="60" height="80" as="geometry" />
        </mxCell>
        <mxCell id="MX4U36bBvxosSef0G0B_-58" value="" style="shape=cylinder3;whiteSpace=wrap;html=1;boundedLbl=1;backgroundOutline=1;size=15;" vertex="1" parent="1">
          <mxGeometry x="-600" y="1430" width="60" height="80" as="geometry" />
        </mxCell>
        <mxCell id="MX4U36bBvxosSef0G0B_-59" value="" style="shape=cylinder3;whiteSpace=wrap;html=1;boundedLbl=1;backgroundOutline=1;size=15;" vertex="1" parent="1">
          <mxGeometry x="-730" y="1760" width="60" height="80" as="geometry" />
        </mxCell>
        <mxCell id="MX4U36bBvxosSef0G0B_-60" style="edgeStyle=orthogonalEdgeStyle;rounded=0;orthogonalLoop=1;jettySize=auto;html=1;entryX=0;entryY=0.5;entryDx=0;entryDy=0;entryPerimeter=0;" edge="1" parent="1" source="MX4U36bBvxosSef0G0B_-17" target="MX4U36bBvxosSef0G0B_-59">
          <mxGeometry relative="1" as="geometry" />
        </mxCell>
        <mxCell id="MX4U36bBvxosSef0G0B_-61" style="edgeStyle=orthogonalEdgeStyle;rounded=0;orthogonalLoop=1;jettySize=auto;html=1;entryX=0;entryY=0.5;entryDx=0;entryDy=0;entryPerimeter=0;" edge="1" parent="1" source="MX4U36bBvxosSef0G0B_-16" target="MX4U36bBvxosSef0G0B_-57">
          <mxGeometry relative="1" as="geometry" />
        </mxCell>
        <mxCell id="MX4U36bBvxosSef0G0B_-62" style="edgeStyle=orthogonalEdgeStyle;rounded=0;orthogonalLoop=1;jettySize=auto;html=1;entryX=0;entryY=0.5;entryDx=0;entryDy=0;entryPerimeter=0;" edge="1" parent="1" source="MX4U36bBvxosSef0G0B_-15" target="MX4U36bBvxosSef0G0B_-58">
          <mxGeometry relative="1" as="geometry" />
        </mxCell>
        <mxCell id="MX4U36bBvxosSef0G0B_-63" value="Database" style="text;html=1;align=center;verticalAlign=middle;resizable=0;points=[];autosize=1;strokeColor=none;fillColor=none;" vertex="1" parent="1">
          <mxGeometry x="-735" y="1840" width="70" height="30" as="geometry" />
        </mxCell>
        <mxCell id="MX4U36bBvxosSef0G0B_-64" value="Database" style="text;html=1;align=center;verticalAlign=middle;resizable=0;points=[];autosize=1;strokeColor=none;fillColor=none;" vertex="1" parent="1">
          <mxGeometry x="-590" y="1760" width="70" height="30" as="geometry" />
        </mxCell>
        <mxCell id="MX4U36bBvxosSef0G0B_-65" value="Database" style="text;html=1;align=center;verticalAlign=middle;resizable=0;points=[];autosize=1;strokeColor=none;fillColor=none;" vertex="1" parent="1">
          <mxGeometry x="-605" y="1520" width="70" height="30" as="geometry" />
        </mxCell>
        <mxCell id="MX4U36bBvxosSef0G0B_-67" value="Rest API" style="text;html=1;align=center;verticalAlign=middle;resizable=0;points=[];autosize=1;strokeColor=none;fillColor=none;" vertex="1" parent="1">
          <mxGeometry x="-895" y="1225" width="70" height="30" as="geometry" />
        </mxCell>
        <mxCell id="MX4U36bBvxosSef0G0B_-68" value="API Layer With Express JS" style="text;html=1;align=center;verticalAlign=middle;resizable=0;points=[];autosize=1;strokeColor=#001DBC;fillColor=#0050ef;fontColor=#ffffff;" vertex="1" parent="1">
          <mxGeometry x="-950" y="1090" width="170" height="30" as="geometry" />
        </mxCell>
        <mxCell id="MX4U36bBvxosSef0G0B_-73" value="" style="rounded=1;whiteSpace=wrap;html=1;" vertex="1" parent="1">
          <mxGeometry x="-1270" y="50" width="910" height="730" as="geometry" />
        </mxCell>
        <mxCell id="MX4U36bBvxosSef0G0B_-74" value="&lt;font style=&quot;font-size: 48px;&quot;&gt;&lt;b&gt;Express App&lt;/b&gt;&lt;/font&gt;" style="text;html=1;align=center;verticalAlign=middle;resizable=0;points=[];autosize=1;strokeColor=none;fillColor=none;" vertex="1" parent="1">
          <mxGeometry x="-1020" y="-60" width="320" height="70" as="geometry" />
        </mxCell>
        <mxCell id="MX4U36bBvxosSef0G0B_-75" value="" style="rounded=1;whiteSpace=wrap;html=1;" vertex="1" parent="1">
          <mxGeometry x="-1200" y="160" width="770" height="530" as="geometry" />
        </mxCell>
        <mxCell id="MX4U36bBvxosSef0G0B_-78" value="&lt;font style=&quot;font-size: 18px;&quot;&gt;&lt;b style=&quot;&quot;&gt;Controller handle Request and Response lifecycle&lt;/b&gt;&lt;/font&gt;" style="text;html=1;align=center;verticalAlign=middle;resizable=0;points=[];autosize=1;strokeColor=none;fillColor=none;" vertex="1" parent="1">
          <mxGeometry x="-1190" y="110" width="450" height="40" as="geometry" />
        </mxCell>
        <mxCell id="MX4U36bBvxosSef0G0B_-79" value="" style="rounded=1;whiteSpace=wrap;html=1;" vertex="1" parent="1">
          <mxGeometry x="-1120" y="230" width="560" height="340" as="geometry" />
        </mxCell>
        <mxCell id="MX4U36bBvxosSef0G0B_-80" value="&lt;font style=&quot;font-size: 18px;&quot;&gt;&lt;b style=&quot;&quot;&gt;Service handle business logic&lt;/b&gt;&lt;/font&gt;" style="text;html=1;align=center;verticalAlign=middle;resizable=0;points=[];autosize=1;strokeColor=none;fillColor=none;" vertex="1" parent="1">
          <mxGeometry x="-1130" y="180" width="280" height="40" as="geometry" />
        </mxCell>
        <mxCell id="MX4U36bBvxosSef0G0B_-81" value="" style="rounded=1;whiteSpace=wrap;html=1;" vertex="1" parent="1">
          <mxGeometry x="-1040" y="300" width="435" height="230" as="geometry" />
        </mxCell>
        <mxCell id="MX4U36bBvxosSef0G0B_-82" value="&lt;font style=&quot;font-size: 18px;&quot;&gt;&lt;b style=&quot;&quot;&gt;Repository&lt;/b&gt;&lt;/font&gt;" style="text;html=1;align=center;verticalAlign=middle;resizable=0;points=[];autosize=1;strokeColor=none;fillColor=none;" vertex="1" parent="1">
          <mxGeometry x="-1040" y="250" width="120" height="40" as="geometry" />
        </mxCell>
        <mxCell id="MX4U36bBvxosSef0G0B_-83" value="" style="rounded=1;whiteSpace=wrap;html=1;" vertex="1" parent="1">
          <mxGeometry x="-956.25" y="357.5" width="192.5" height="115" as="geometry" />
        </mxCell>
        <mxCell id="MX4U36bBvxosSef0G0B_-84" value="&lt;font style=&quot;font-size: 18px;&quot;&gt;&lt;b style=&quot;&quot;&gt;models&lt;/b&gt;&lt;/font&gt;" style="text;html=1;align=center;verticalAlign=middle;resizable=0;points=[];autosize=1;strokeColor=none;fillColor=none;" vertex="1" parent="1">
          <mxGeometry x="-965" y="310" width="90" height="40" as="geometry" />
        </mxCell>
        <mxCell id="MX4U36bBvxosSef0G0B_-85" value="" style="shape=actor;whiteSpace=wrap;html=1;" vertex="1" parent="1">
          <mxGeometry x="-1670" y="-10" width="110" height="110" as="geometry" />
        </mxCell>
        <mxCell id="MX4U36bBvxosSef0G0B_-87" value="Making a Request to express App" style="text;html=1;align=center;verticalAlign=middle;resizable=0;points=[];autosize=1;strokeColor=none;fillColor=none;rotation=0;" vertex="1" parent="1">
          <mxGeometry x="-1560" y="10" width="200" height="30" as="geometry" />
        </mxCell>
        <mxCell id="MX4U36bBvxosSef0G0B_-88" value="&lt;font style=&quot;font-size: 10px;&quot;&gt;database connection&lt;/font&gt;" style="shape=cylinder3;whiteSpace=wrap;html=1;boundedLbl=1;backgroundOutline=1;size=15;" vertex="1" parent="1">
          <mxGeometry x="-890" y="374.9999999999998" width="60" height="80" as="geometry" />
        </mxCell>
        <mxCell id="MX4U36bBvxosSef0G0B_-90" value="Express App" style="text;html=1;align=center;verticalAlign=middle;resizable=0;points=[];autosize=1;strokeColor=none;fillColor=none;" vertex="1" parent="1">
          <mxGeometry x="-1000" y="1128" width="90" height="30" as="geometry" />
        </mxCell>
        <mxCell id="MX4U36bBvxosSef0G0B_-91" value="Express App" style="text;html=1;align=center;verticalAlign=middle;resizable=0;points=[];autosize=1;strokeColor=none;fillColor=none;" vertex="1" parent="1">
          <mxGeometry x="-1010" y="1240" width="90" height="30" as="geometry" />
        </mxCell>
        <mxCell id="MX4U36bBvxosSef0G0B_-92" value="Express App" style="text;html=1;align=center;verticalAlign=middle;resizable=0;points=[];autosize=1;strokeColor=none;fillColor=none;" vertex="1" parent="1">
          <mxGeometry x="-925" y="1660" width="90" height="30" as="geometry" />
        </mxCell>
        <mxCell id="MX4U36bBvxosSef0G0B_-93" value="Express App" style="text;html=1;align=center;verticalAlign=middle;resizable=0;points=[];autosize=1;strokeColor=none;fillColor=none;" vertex="1" parent="1">
          <mxGeometry x="-1025" y="1410" width="90" height="30" as="geometry" />
        </mxCell>
        <mxCell id="MX4U36bBvxosSef0G0B_-94" value="Express App" style="text;html=1;align=center;verticalAlign=middle;resizable=0;points=[];autosize=1;strokeColor=none;fillColor=none;" vertex="1" parent="1">
          <mxGeometry x="-1060" y="1740" width="90" height="30" as="geometry" />
        </mxCell>
        <mxCell id="MX4U36bBvxosSef0G0B_-96" value="&lt;font style=&quot;font-size: 18px;&quot;&gt;&lt;b style=&quot;&quot;&gt;Global Middleware&lt;/b&gt;&lt;/font&gt;" style="text;html=1;align=center;verticalAlign=middle;resizable=0;points=[];autosize=1;strokeColor=none;fillColor=none;" vertex="1" parent="1">
          <mxGeometry x="-1330" y="10" width="180" height="40" as="geometry" />
        </mxCell>
        <mxCell id="MX4U36bBvxosSef0G0B_-100" value="" style="endArrow=classic;html=1;rounded=0;exitX=0.022;exitY=0.059;exitDx=0;exitDy=0;exitPerimeter=0;entryX=0.001;entryY=0.118;entryDx=0;entryDy=0;entryPerimeter=0;" edge="1" parent="1" source="MX4U36bBvxosSef0G0B_-81" target="MX4U36bBvxosSef0G0B_-83">
          <mxGeometry width="50" height="50" relative="1" as="geometry">
            <mxPoint x="-970" y="320" as="sourcePoint" />
            <mxPoint x="-920" y="270" as="targetPoint" />
          </mxGeometry>
        </mxCell>
        <mxCell id="MX4U36bBvxosSef0G0B_-101" value="Call" style="edgeLabel;html=1;align=center;verticalAlign=middle;resizable=0;points=[];" vertex="1" connectable="0" parent="MX4U36bBvxosSef0G0B_-100">
          <mxGeometry x="-0.0593" y="-2" relative="1" as="geometry">
            <mxPoint as="offset" />
          </mxGeometry>
        </mxCell>
        <mxCell id="MX4U36bBvxosSef0G0B_-102" value="" style="endArrow=classic;html=1;rounded=0;exitX=0.022;exitY=0.059;exitDx=0;exitDy=0;exitPerimeter=0;entryX=0.001;entryY=0.118;entryDx=0;entryDy=0;entryPerimeter=0;" edge="1" parent="1">
          <mxGeometry width="50" height="50" relative="1" as="geometry">
            <mxPoint x="-1110" y="250" as="sourcePoint" />
            <mxPoint x="-1036" y="307" as="targetPoint" />
          </mxGeometry>
        </mxCell>
        <mxCell id="MX4U36bBvxosSef0G0B_-103" value="Call" style="edgeLabel;html=1;align=center;verticalAlign=middle;resizable=0;points=[];" vertex="1" connectable="0" parent="MX4U36bBvxosSef0G0B_-102">
          <mxGeometry x="-0.0593" y="-2" relative="1" as="geometry">
            <mxPoint as="offset" />
          </mxGeometry>
        </mxCell>
        <mxCell id="MX4U36bBvxosSef0G0B_-106" value="" style="endArrow=classic;html=1;rounded=0;exitX=0.022;exitY=0.059;exitDx=0;exitDy=0;exitPerimeter=0;entryX=-0.002;entryY=0.556;entryDx=0;entryDy=0;entryPerimeter=0;" edge="1" parent="1" target="MX4U36bBvxosSef0G0B_-88">
          <mxGeometry width="50" height="50" relative="1" as="geometry">
            <mxPoint x="-956.25" y="371.5" as="sourcePoint" />
            <mxPoint x="-882.25" y="428.5" as="targetPoint" />
          </mxGeometry>
        </mxCell>
        <mxCell id="MX4U36bBvxosSef0G0B_-107" value="Call" style="edgeLabel;html=1;align=center;verticalAlign=middle;resizable=0;points=[];" vertex="1" connectable="0" parent="MX4U36bBvxosSef0G0B_-106">
          <mxGeometry x="-0.0593" y="-2" relative="1" as="geometry">
            <mxPoint as="offset" />
          </mxGeometry>
        </mxCell>
        <mxCell id="MX4U36bBvxosSef0G0B_-108" value="Query" style="edgeLabel;html=1;align=center;verticalAlign=middle;resizable=0;points=[];" vertex="1" connectable="0" parent="MX4U36bBvxosSef0G0B_-106">
          <mxGeometry x="-0.0419" y="-3" relative="1" as="geometry">
            <mxPoint as="offset" />
          </mxGeometry>
        </mxCell>
        <mxCell id="MX4U36bBvxosSef0G0B_-109" value="" style="endArrow=classic;html=1;rounded=0;exitX=0.022;exitY=0.059;exitDx=0;exitDy=0;exitPerimeter=0;" edge="1" parent="1">
          <mxGeometry width="50" height="50" relative="1" as="geometry">
            <mxPoint x="-1180" y="193" as="sourcePoint" />
            <mxPoint x="-1110" y="250" as="targetPoint" />
          </mxGeometry>
        </mxCell>
        <mxCell id="MX4U36bBvxosSef0G0B_-110" value="Call" style="edgeLabel;html=1;align=center;verticalAlign=middle;resizable=0;points=[];" vertex="1" connectable="0" parent="MX4U36bBvxosSef0G0B_-109">
          <mxGeometry x="-0.0593" y="-2" relative="1" as="geometry">
            <mxPoint as="offset" />
          </mxGeometry>
        </mxCell>
        <mxCell id="MX4U36bBvxosSef0G0B_-111" value="" style="endArrow=classic;html=1;rounded=0;exitX=0.022;exitY=0.059;exitDx=0;exitDy=0;exitPerimeter=0;entryX=0.019;entryY=0.059;entryDx=0;entryDy=0;entryPerimeter=0;" edge="1" parent="1" target="MX4U36bBvxosSef0G0B_-75">
          <mxGeometry width="50" height="50" relative="1" as="geometry">
            <mxPoint x="-1264" y="130" as="sourcePoint" />
            <mxPoint x="-1190" y="187" as="targetPoint" />
          </mxGeometry>
        </mxCell>
        <mxCell id="MX4U36bBvxosSef0G0B_-112" value="Call" style="edgeLabel;html=1;align=center;verticalAlign=middle;resizable=0;points=[];" vertex="1" connectable="0" parent="MX4U36bBvxosSef0G0B_-111">
          <mxGeometry x="-0.0593" y="-2" relative="1" as="geometry">
            <mxPoint as="offset" />
          </mxGeometry>
        </mxCell>
        <mxCell id="MX4U36bBvxosSef0G0B_-114" value="" style="endArrow=classic;html=1;rounded=0;exitX=0;exitY=0;exitDx=0;exitDy=15;exitPerimeter=0;entryX=0.086;entryY=0.006;entryDx=0;entryDy=0;entryPerimeter=0;" edge="1" parent="1" source="MX4U36bBvxosSef0G0B_-88" target="MX4U36bBvxosSef0G0B_-83">
          <mxGeometry width="50" height="50" relative="1" as="geometry">
            <mxPoint x="-920" y="370" as="sourcePoint" />
            <mxPoint x="-870" y="320" as="targetPoint" />
          </mxGeometry>
        </mxCell>
        <mxCell id="MX4U36bBvxosSef0G0B_-115" value="&lt;font style=&quot;font-size: 8px;&quot;&gt;Return&lt;/font&gt;" style="edgeLabel;html=1;align=center;verticalAlign=middle;resizable=0;points=[];" vertex="1" connectable="0" parent="MX4U36bBvxosSef0G0B_-114">
          <mxGeometry x="-0.064" y="2" relative="1" as="geometry">
            <mxPoint as="offset" />
          </mxGeometry>
        </mxCell>
        <mxCell id="MX4U36bBvxosSef0G0B_-116" value="" style="endArrow=classic;html=1;rounded=0;exitX=0;exitY=0;exitDx=0;exitDy=15;exitPerimeter=0;entryX=0.059;entryY=0.018;entryDx=0;entryDy=0;entryPerimeter=0;" edge="1" parent="1" target="MX4U36bBvxosSef0G0B_-81">
          <mxGeometry width="50" height="50" relative="1" as="geometry">
            <mxPoint x="-940" y="357.5" as="sourcePoint" />
            <mxPoint x="-990" y="327.5" as="targetPoint" />
          </mxGeometry>
        </mxCell>
        <mxCell id="MX4U36bBvxosSef0G0B_-117" value="&lt;font style=&quot;font-size: 8px;&quot;&gt;Return&lt;/font&gt;" style="edgeLabel;html=1;align=center;verticalAlign=middle;resizable=0;points=[];" vertex="1" connectable="0" parent="MX4U36bBvxosSef0G0B_-116">
          <mxGeometry x="-0.064" y="2" relative="1" as="geometry">
            <mxPoint as="offset" />
          </mxGeometry>
        </mxCell>
        <mxCell id="MX4U36bBvxosSef0G0B_-118" value="" style="endArrow=classic;html=1;rounded=0;exitX=0;exitY=0;exitDx=0;exitDy=15;exitPerimeter=0;entryX=0.048;entryY=0.025;entryDx=0;entryDy=0;entryPerimeter=0;" edge="1" parent="1" target="MX4U36bBvxosSef0G0B_-79">
          <mxGeometry width="50" height="50" relative="1" as="geometry">
            <mxPoint x="-1020" y="300" as="sourcePoint" />
            <mxPoint x="-1094" y="246.5" as="targetPoint" />
          </mxGeometry>
        </mxCell>
        <mxCell id="MX4U36bBvxosSef0G0B_-119" value="&lt;font style=&quot;font-size: 8px;&quot;&gt;Return&lt;/font&gt;" style="edgeLabel;html=1;align=center;verticalAlign=middle;resizable=0;points=[];" vertex="1" connectable="0" parent="MX4U36bBvxosSef0G0B_-118">
          <mxGeometry x="-0.064" y="2" relative="1" as="geometry">
            <mxPoint as="offset" />
          </mxGeometry>
        </mxCell>
        <mxCell id="MX4U36bBvxosSef0G0B_-121" value="" style="endArrow=classic;html=1;rounded=0;exitX=0.045;exitY=0.023;exitDx=0;exitDy=0;exitPerimeter=0;entryX=0.045;entryY=0.028;entryDx=0;entryDy=0;entryPerimeter=0;" edge="1" parent="1" source="MX4U36bBvxosSef0G0B_-79" target="MX4U36bBvxosSef0G0B_-75">
          <mxGeometry width="50" height="50" relative="1" as="geometry">
            <mxPoint x="-1097" y="230.5" as="sourcePoint" />
            <mxPoint x="-1170" y="169.5" as="targetPoint" />
          </mxGeometry>
        </mxCell>
        <mxCell id="MX4U36bBvxosSef0G0B_-122" value="&lt;font style=&quot;font-size: 8px;&quot;&gt;Return&lt;/font&gt;" style="edgeLabel;html=1;align=center;verticalAlign=middle;resizable=0;points=[];" vertex="1" connectable="0" parent="MX4U36bBvxosSef0G0B_-121">
          <mxGeometry x="-0.064" y="2" relative="1" as="geometry">
            <mxPoint as="offset" />
          </mxGeometry>
        </mxCell>
        <mxCell id="MX4U36bBvxosSef0G0B_-123" value="" style="endArrow=classic;html=1;rounded=0;exitX=0.044;exitY=0.027;exitDx=0;exitDy=0;exitPerimeter=0;entryX=0.016;entryY=0.075;entryDx=0;entryDy=0;entryPerimeter=0;" edge="1" parent="1" source="MX4U36bBvxosSef0G0B_-75" target="MX4U36bBvxosSef0G0B_-73">
          <mxGeometry width="50" height="50" relative="1" as="geometry">
            <mxPoint x="-1180" y="173" as="sourcePoint" />
            <mxPoint x="-1250" y="110" as="targetPoint" />
          </mxGeometry>
        </mxCell>
        <mxCell id="MX4U36bBvxosSef0G0B_-124" value="&lt;font style=&quot;font-size: 8px;&quot;&gt;Return&lt;/font&gt;" style="edgeLabel;html=1;align=center;verticalAlign=middle;resizable=0;points=[];" vertex="1" connectable="0" parent="MX4U36bBvxosSef0G0B_-123">
          <mxGeometry x="-0.064" y="2" relative="1" as="geometry">
            <mxPoint as="offset" />
          </mxGeometry>
        </mxCell>
        <mxCell id="MX4U36bBvxosSef0G0B_-127" value="" style="edgeStyle=orthogonalEdgeStyle;rounded=0;orthogonalLoop=1;jettySize=auto;html=1;entryX=0;entryY=0.5;entryDx=0;entryDy=0;curved=1;" edge="1" parent="1" source="MX4U36bBvxosSef0G0B_-85" target="MX4U36bBvxosSef0G0B_-126">
          <mxGeometry relative="1" as="geometry">
            <mxPoint x="-1260" y="110" as="targetPoint" />
            <mxPoint x="-1560" y="45" as="sourcePoint" />
          </mxGeometry>
        </mxCell>
        <mxCell id="MX4U36bBvxosSef0G0B_-126" value="LifeCycle" style="ellipse;whiteSpace=wrap;html=1;aspect=fixed;" vertex="1" parent="1">
          <mxGeometry x="-1330" y="70" width="80" height="80" as="geometry" />
        </mxCell>
        <mxCell id="MX4U36bBvxosSef0G0B_-129" value="" style="curved=1;endArrow=classic;html=1;rounded=0;exitX=0.017;exitY=0.065;exitDx=0;exitDy=0;exitPerimeter=0;entryX=0.022;entryY=0.066;entryDx=0;entryDy=0;entryPerimeter=0;" edge="1" parent="1" source="MX4U36bBvxosSef0G0B_-79" target="MX4U36bBvxosSef0G0B_-75">
          <mxGeometry width="50" height="50" relative="1" as="geometry">
            <mxPoint x="-1200" y="295" as="sourcePoint" />
            <mxPoint x="-1150" y="245" as="targetPoint" />
            <Array as="points">
              <mxPoint x="-1150" y="295" />
              <mxPoint x="-1200" y="245" />
            </Array>
          </mxGeometry>
        </mxCell>
        <mxCell id="MX4U36bBvxosSef0G0B_-130" value="&lt;font style=&quot;font-size: 6px;&quot;&gt;Is Error&lt;/font&gt;" style="edgeLabel;html=1;align=center;verticalAlign=middle;resizable=0;points=[];" vertex="1" connectable="0" parent="MX4U36bBvxosSef0G0B_-129">
          <mxGeometry x="0.0445" relative="1" as="geometry">
            <mxPoint as="offset" />
          </mxGeometry>
        </mxCell>
        <mxCell id="MX4U36bBvxosSef0G0B_-131" value="" style="curved=1;endArrow=classic;html=1;rounded=0;exitX=0.017;exitY=0.065;exitDx=0;exitDy=0;exitPerimeter=0;entryX=0.022;entryY=0.066;entryDx=0;entryDy=0;entryPerimeter=0;" edge="1" parent="1">
          <mxGeometry width="50" height="50" relative="1" as="geometry">
            <mxPoint x="-1040" y="307" as="sourcePoint" />
            <mxPoint x="-1113" y="250" as="targetPoint" />
            <Array as="points">
              <mxPoint x="-1080" y="350" />
              <mxPoint x="-1130" y="300" />
            </Array>
          </mxGeometry>
        </mxCell>
        <mxCell id="MX4U36bBvxosSef0G0B_-132" value="&lt;font style=&quot;font-size: 6px;&quot;&gt;Is Error&lt;/font&gt;" style="edgeLabel;html=1;align=center;verticalAlign=middle;resizable=0;points=[];" vertex="1" connectable="0" parent="MX4U36bBvxosSef0G0B_-131">
          <mxGeometry x="0.0445" relative="1" as="geometry">
            <mxPoint as="offset" />
          </mxGeometry>
        </mxCell>
        <mxCell id="MX4U36bBvxosSef0G0B_-133" value="" style="curved=1;endArrow=classic;html=1;rounded=0;exitX=0.017;exitY=0.065;exitDx=0;exitDy=0;exitPerimeter=0;entryX=0.022;entryY=0.066;entryDx=0;entryDy=0;entryPerimeter=0;" edge="1" parent="1">
          <mxGeometry width="50" height="50" relative="1" as="geometry">
            <mxPoint x="-956.25" y="367" as="sourcePoint" />
            <mxPoint x="-1029.25" y="310" as="targetPoint" />
            <Array as="points">
              <mxPoint x="-996.25" y="410" />
              <mxPoint x="-1046.25" y="360" />
            </Array>
          </mxGeometry>
        </mxCell>
        <mxCell id="MX4U36bBvxosSef0G0B_-134" value="&lt;font style=&quot;font-size: 6px;&quot;&gt;Is Error&lt;/font&gt;" style="edgeLabel;html=1;align=center;verticalAlign=middle;resizable=0;points=[];" vertex="1" connectable="0" parent="MX4U36bBvxosSef0G0B_-133">
          <mxGeometry x="0.0445" relative="1" as="geometry">
            <mxPoint as="offset" />
          </mxGeometry>
        </mxCell>
      </root>
    </mxGraphModel>
  </diagram>
</mxfile>
